<?xml version="1.0" encoding="utf-8"?>
<svg xmlns="http://www.w3.org/2000/svg" viewBox="0 0 100 100">
  <title>Yuanbao</title>
  <g id="Layer_1" transform="matrix(0.305539, 0, 0, 0.305539, 0.000001, 0.000009)" style="">
    <g transform="matrix(1.050259, 0, 0, 1.050259, 690.676025, -840.448608)" style="">
      <circle style="stroke: rgb(0, 0, 0); fill: rgb(255, 255, 255);" cx="-501.81" cy="956.044" r="146.369"/>
      <g transform="matrix(1.009792, 0, 0, 1.009792, -964.019592, -54.945713)">
        <path d="M565.448,960.531c-17.576-17.576-46.043-17.606-63.582-0.066c-14.631,14.631-17.034,36.865-7.227,54.039l-25.296,25.296 v-64.998c19.226-5.112,33.39-22.603,33.39-43.399c0-24.805-20.15-44.913-45.006-44.913c-24.856,0-45.006,20.108-45.006,44.913 c0,20.692,14.023,38.112,33.101,43.321v65.196l-25.154-25.154c9.98-17.209,7.627-39.593-7.078-54.298 c-17.539-17.539-46.006-17.51-63.582,0.066s-17.606,46.043-0.066,63.582c14.631,14.631,36.865,17.034,54.039,7.227 l41.841,41.841v42.7h23.521v-42.82l41.873-41.873c17.209,9.98,39.593,7.627,54.298-7.078 C583.053,1006.573,583.024,978.107,565.448,960.531z" style="fill-rule: nonzero;"/>
        <g>
          <path d="M457.727,1155.489c-20.827,0-41.036-4.081-60.064-12.129c-18.375-7.772-34.876-18.897-49.045-33.065 c-14.168-14.168-25.293-30.669-33.065-49.045c-8.048-19.029-12.129-39.237-12.129-60.064c0-20.827,4.081-41.036,12.129-60.064 c7.772-18.375,18.897-34.876,33.065-49.045c14.168-14.168,30.669-25.293,49.045-33.065 c19.029-8.048,39.237-12.129,60.064-12.129s41.036,4.081,60.064,12.129c18.375,7.772,34.876,18.897,49.045,33.065 c14.168,14.168,25.293,30.669,33.065,49.045c8.049,19.029,12.129,39.237,12.129,60.064c0,20.827-4.081,41.036-12.129,60.064 c-7.772,18.375-18.897,34.876-33.065,49.045c-14.168,14.168-30.669,25.293-49.045,33.065 C498.763,1151.408,478.555,1155.489,457.727,1155.489z M457.727,863.516c-75.911,0-137.669,61.758-137.669,137.669 s61.758,137.669,137.669,137.669s137.669-61.758,137.669-137.669S533.639,863.516,457.727,863.516z" style="fill-rule: nonzero; fill: rgb(255, 255, 255);"/>
        </g>
      </g>
    </g>
  </g>
</svg>